<svg xmlns="http://www.w3.org/2000/svg" xmlns:xlink="http://www.w3.org/1999/xlink" width="171.141" height="50.691" viewBox="0 0 171.141 50.691">
  <defs>
    <linearGradient id="linear-gradient" x1="1.1" y1="0.884" x2="-0.1" y2="0.148" gradientUnits="objectBoundingBox">
      <stop offset="0" stop-color="#cdd02d"/>
      <stop offset="0.231" stop-color="#cacd2d"/>
      <stop offset="0.388" stop-color="#c1c52c"/>
      <stop offset="0.523" stop-color="#b2b62a"/>
      <stop offset="0.646" stop-color="#9ca127"/>
      <stop offset="0.761" stop-color="#808524"/>
      <stop offset="0.869" stop-color="#5e641f"/>
      <stop offset="0.97" stop-color="#363d1b"/>
      <stop offset="1" stop-color="#293019"/>
    </linearGradient>
  </defs>
  <g id="IEC_SecondarySymbol_Lime" transform="translate(0 -1.177)">
    <g id="Group_170" data-name="Group 170" transform="translate(95.414 9.602)">
      <g id="Group_169" data-name="Group 169">
        <path id="Path_18" data-name="Path 18" d="M138.611,13.247h2.566a.218.218,0,0,1,.218.218V28.413a.218.218,0,0,1-.218.218h-2.566a.218.218,0,0,1-.218-.218V13.465A.218.218,0,0,1,138.611,13.247Z" transform="translate(-137.107 -13.238)" fill="#054f72"/>
        <path id="Path_19" data-name="Path 19" d="M156.658,22.335v7.423a.261.261,0,0,1-.261.261h-2.481a.261.261,0,0,1-.261-.261V23.086a2.188,2.188,0,0,0-2.352-2.427,2.927,2.927,0,0,0-2.352,1.527v7.573a.261.261,0,0,1-.261.261h-2.481a.261.261,0,0,1-.261-.261V18.416a.261.261,0,0,1,.261-.261h2.28a.261.261,0,0,1,.261.261v1.466a4.1,4.1,0,0,1,3.554-2.027A4.251,4.251,0,0,1,156.658,22.335Z" transform="translate(-139.382 -14.626)" fill="#054f72"/>
        <path id="Path_20" data-name="Path 20" d="M164.868,26.222a.257.257,0,0,1,.38-.036,5.362,5.362,0,0,0,3.378,1.506c1.227,0,2.254-.351,2.254-1.077,0-.776-.551-.925-2.354-1.3-2.352-.5-4.4-1.5-4.4-3.754,0-1.852,1.852-3.7,5.106-3.7a7.7,7.7,0,0,1,4.246,1.3.26.26,0,0,1,.067.363L172.328,21.3a.257.257,0,0,1-.353.075,5.379,5.379,0,0,0-2.747-.885c-1.125,0-2.152.4-2.152,1.126s.8.9,2.8,1.327c2.352.5,4.029,1.276,4.029,3.73,0,2.027-2.152,3.654-5.18,3.654a7.54,7.54,0,0,1-5.2-1.991.256.256,0,0,1-.02-.343Z" transform="translate(-144.656 -14.626)" fill="#054f72"/>
        <path id="Path_21" data-name="Path 21" d="M180.39,16.763h2.066V13.5a.261.261,0,0,1,.261-.261H185.2a.261.261,0,0,1,.261.261v3.267h3.318a.261.261,0,0,1,.261.261V19.2a.261.261,0,0,1-.261.261H185.46v4.781c0,1.451.752,1.877,1.553,1.877a2.215,2.215,0,0,0,1.014-.281.258.258,0,0,1,.358.124l.885,1.971a.263.263,0,0,1-.116.338,5.612,5.612,0,0,1-2.642.651,3.972,3.972,0,0,1-4.055-4.206V19.466H180.39a.261.261,0,0,1-.261-.261V17.024A.26.26,0,0,1,180.39,16.763Z" transform="translate(-149.68 -13.234)" fill="#054f72"/>
        <path id="Path_22" data-name="Path 22" d="M206.425,22.285v7.473a.261.261,0,0,1-.261.261h-2.256a.261.261,0,0,1-.261-.261V28.517a4.8,4.8,0,0,1-3.905,1.8,4.012,4.012,0,0,1-4.28-3.981c0-2.278,2.077-3.93,4.655-3.93a5.767,5.767,0,0,1,3.3.851v-.676c0-1.552-1.5-2.052-2.554-2.052a9.278,9.278,0,0,0-3.311.769.259.259,0,0,1-.342-.146l-.785-1.993a.261.261,0,0,1,.14-.336,11.952,11.952,0,0,1,4.448-.972C204.422,17.855,206.425,19.581,206.425,22.285Zm-3,4.155V25.213a6,6,0,0,0-2.7-.6c-.927,0-2.2.4-2.2,1.676,0,1.251,1.227,1.527,2.152,1.527A3.52,3.52,0,0,0,203.421,26.44Z" transform="translate(-154.299 -14.626)" fill="#054f72"/>
        <path id="Path_23" data-name="Path 23" d="M225.12,22.335v7.423a.261.261,0,0,1-.261.261h-2.479a.261.261,0,0,1-.261-.261V23.086a2.19,2.19,0,0,0-2.354-2.427,2.927,2.927,0,0,0-2.352,1.527v7.573a.261.261,0,0,1-.261.261h-2.481a.261.261,0,0,1-.261-.261V18.416a.261.261,0,0,1,.261-.261h2.28a.261.261,0,0,1,.261.261v1.466a4.1,4.1,0,0,1,3.554-2.027A4.25,4.25,0,0,1,225.12,22.335Z" transform="translate(-160.007 -14.626)" fill="#054f72"/>
        <path id="Path_24" data-name="Path 24" d="M232.075,16.763h2.066V13.5a.261.261,0,0,1,.261-.261h2.481a.261.261,0,0,1,.261.261v3.267h3.318a.261.261,0,0,1,.261.261V19.2a.261.261,0,0,1-.261.261h-3.318v4.781c0,1.451.752,1.877,1.553,1.877a2.215,2.215,0,0,0,1.014-.281.258.258,0,0,1,.358.124l.885,1.971a.263.263,0,0,1-.116.338,5.612,5.612,0,0,1-2.642.651,3.972,3.972,0,0,1-4.055-4.206V19.466h-2.066a.261.261,0,0,1-.261-.261V17.024A.26.26,0,0,1,232.075,16.763Z" transform="translate(-165.251 -13.234)" fill="#054f72"/>
        <path id="Path_25" data-name="Path 25" d="M148.382,51.125c0,.223,0,.669-.024,1.116h-8.78a3.356,3.356,0,0,0,3.3,2.381,4.873,4.873,0,0,0,3.012-1.007.257.257,0,0,1,.375.063l1.193,1.789a.259.259,0,0,1-.055.349,7.611,7.611,0,0,1-4.525,1.534,6.178,6.178,0,0,1-6.324-6.175,5.919,5.919,0,1,1,11.83-.049ZM145.4,50.083a2.973,2.973,0,0,0-5.827,0Z" transform="translate(-136.552 -22.804)" fill="#054f72"/>
        <path id="Path_26" data-name="Path 26" d="M191.236,49.388v7.4a.261.261,0,0,1-.261.261h-2.23a.261.261,0,0,1-.261-.261V55.563a4.76,4.76,0,0,1-3.869,1.786,3.975,3.975,0,0,1-4.241-3.944c0-2.257,2.058-3.893,4.612-3.893a5.716,5.716,0,0,1,3.274.843v-.669c0-1.538-1.488-2.033-2.53-2.033a9.192,9.192,0,0,0-3.278.761.259.259,0,0,1-.342-.146l-.776-1.97a.261.261,0,0,1,.14-.336A11.849,11.849,0,0,1,185.879,45C189.251,45,191.236,46.71,191.236,49.388Zm-2.977,4.118V52.29a5.945,5.945,0,0,0-2.678-.595c-.919,0-2.183.4-2.183,1.661,0,1.24,1.216,1.513,2.133,1.513A3.486,3.486,0,0,0,188.259,53.506Z" transform="translate(-149.754 -22.804)" fill="#054f72"/>
        <path id="Path_27" data-name="Path 27" d="M207.134,45.624l-.848,2.179a.258.258,0,0,1-.319.155,3.768,3.768,0,0,0-1.189-.184,3.107,3.107,0,0,0-2.627,1.588v7.426a.261.261,0,0,1-.261.261h-2.454a.261.261,0,0,1-.261-.261V45.555a.261.261,0,0,1,.261-.261h2.3a.261.261,0,0,1,.261.261v1.45A3.826,3.826,0,0,1,205.2,45a6.316,6.316,0,0,1,1.767.282A.261.261,0,0,1,207.134,45.624Z" transform="translate(-155.418 -22.803)" fill="#054f72"/>
        <path id="Path_28" data-name="Path 28" d="M222.547,51.125c0,.223,0,.669-.024,1.116h-8.78a3.356,3.356,0,0,0,3.3,2.381,4.873,4.873,0,0,0,3.012-1.007.257.257,0,0,1,.375.063l1.193,1.789a.259.259,0,0,1-.055.349,7.611,7.611,0,0,1-4.525,1.534,6.178,6.178,0,0,1-6.324-6.175,5.919,5.919,0,1,1,11.83-.049Zm-2.977-1.042a2.973,2.973,0,0,0-5.827,0Z" transform="translate(-158.895 -22.804)" fill="#054f72"/>
      </g>
      <path id="Path_29" data-name="Path 29" d="M163.98,56.195a8.14,8.14,0,0,1-5.936-2.587,8.112,8.112,0,0,1,5.81-13.646h.126a8.088,8.088,0,0,1,7.534,5.1.6.6,0,0,1-.01.472.615.615,0,0,1-.351.326l-1.585.579a.623.623,0,0,1-.775-.345,5.207,5.207,0,1,0-.087,4.169.505.505,0,0,1,.639-.268h0l1.771.66a.522.522,0,0,1,.3.284.513.513,0,0,1,0,.4A8.117,8.117,0,0,1,163.98,56.195Z" transform="translate(-142.369 -21.286)" fill="#054f72"/>
    </g>
    <path id="Path_30" data-name="Path 30" d="M101.06,34.267A17.967,17.967,0,0,1,83.825,44.706c-8.624-.448-16.471-8.3-17.007-17.02a17.97,17.97,0,0,1,34.234-8.924,1.8,1.8,0,0,0,2.255.962l3.253-1.2a1.818,1.818,0,0,0,1.034-2.434,24.983,24.983,0,0,0-47.8,8.612A25.012,25.012,0,0,0,107.6,36.935a1.825,1.825,0,0,0-1.036-2.445l-3.248-1.2A1.807,1.807,0,0,0,101.06,34.267Z" transform="translate(-17.994 -0.001)" fill="#cdd02d"/>
    <path id="Path_31" data-name="Path 31" d="M82.5,55.38c-8.086-1.133-15.172-8.615-15.68-16.887-.014-.226-.029-1.219-.034-1.444l-6.8.768a2.174,2.174,0,0,1-.24-.024A25.213,25.213,0,0,0,84.779,62.674c.59,0,1.173-.028,1.753-.068Q84.558,58.966,82.5,55.38Z" transform="translate(-17.999 -10.807)" fill="url(#linear-gradient)"/>
    <path id="Path_32" data-name="Path 32" d="M23.727,1.178A25.236,25.236,0,0,0,.058,18.249a1.1,1.1,0,0,0,.578,1.344h0c.006,0,.008.008.014.01l19.948,9.4a1.791,1.791,0,0,0,2.39-.881l1.46-3.167a1.83,1.83,0,0,0-.871-2.42L9.229,15.776A17.864,17.864,0,0,1,25.352,8.387,18.219,18.219,0,0,1,23.728,44.73,17.977,17.977,0,0,1,7.46,34.306a1.836,1.836,0,0,0-2.249-.961l-3.254,1.2A1.823,1.823,0,0,0,.92,36.986a25.032,25.032,0,0,0,24.772,14.8c13.02-1.011,22.814-12.218,23.114-25.43C49.185,9.69,37.6,1.059,23.727,1.178Z" transform="translate(0 0)" fill="#cdd02d"/>
  </g>
</svg>
